# xmcd
#
# Track frame offsets:
#	150
#	14562
#	33430
#	47961
#	62925
#	89425
#	103031
#	124808
#	138978
#	156237
#	173654
#	187960
#	203453
#	220102
#	238911
#	258078
#	277014
#	294322
#
# Disc length: 4164 seconds
#
# Revision: 1
# Processed by: cddbd v1.5.1PL2 Copyright (c) Steve Scherf et al.
# Submitted via: audiograbber 1.83.01
#
DISCID=08104212
DTITLE=Jakub Smolik - 36 nejkrasnejsich balad - CD1
DYEAR=2006
DGENRE=Country
TTITLE0=Tobe
TTITLE1=Detsky oci
TTITLE2=Kozenej klobouk
TTITLE3=Az se ti jednou bude zdat
TTITLE4=Ticha noc 1864
TTITLE5=O nespocetne krase tela
TTITLE6=Ave Maria
TTITLE7=Srdce na dlani
TTITLE8=Zokejska balada
TTITLE9=Vis
TTITLE10=Vse je pryc
TTITLE11=Tatuv sen
TTITLE12=Sen kovboju
TTITLE13=Jen blazen zarli
TTITLE14=Ziva laska
TTITLE15=Navrat domu
TTITLE16=Ma Jenny
TTITLE17=Madony
EXTD=
EXTT0=
EXTT1=
EXTT2=
EXTT3=
EXTT4=
EXTT5=
EXTT6=
EXTT7=
EXTT8=
EXTT9=
EXTT10=
EXTT11=
EXTT12=
EXTT13=
EXTT14=
EXTT15=
EXTT16=
EXTT17=
PLAYORDER=
